<svg width="16" height="16" viewBox="0 0 16 16" fill="none" xmlns="http://www.w3.org/2000/svg">
<g clip-path="url(#clip0_217_1167)">
<path d="M10.0007 15.1663H6.00065C2.38065 15.1663 0.833984 13.6197 0.833984 9.99967V5.99967C0.833984 2.37967 2.38065 0.833008 6.00065 0.833008H9.33398C9.60732 0.833008 9.83398 1.05967 9.83398 1.33301C9.83398 1.60634 9.60732 1.83301 9.33398 1.83301H6.00065C2.92732 1.83301 1.83398 2.92634 1.83398 5.99967V9.99967C1.83398 13.073 2.92732 14.1663 6.00065 14.1663H10.0007C13.074 14.1663 14.1673 13.073 14.1673 9.99967V6.66634C14.1673 6.39301 14.394 6.16634 14.6673 6.16634C14.9406 6.16634 15.1673 6.39301 15.1673 6.66634V9.99967C15.1673 13.6197 13.6207 15.1663 10.0007 15.1663Z" fill="white"/>
<path d="M14.6673 7.16536H12.0007C9.72065 7.16536 8.83398 6.27869 8.83398 3.99869V1.33202C8.83398 1.13202 8.95398 0.945357 9.14065 0.872024C9.32732 0.792024 9.54065 0.83869 9.68732 0.97869L15.0207 6.31202C15.0902 6.38207 15.1374 6.4711 15.1565 6.56793C15.1756 6.66475 15.1656 6.76505 15.1279 6.85623C15.0901 6.94741 15.0262 7.0254 14.9443 7.0804C14.8624 7.1354 14.766 7.16496 14.6673 7.16536ZM9.83398 2.53869V3.99869C9.83398 5.71869 10.2807 6.16536 12.0007 6.16536H13.4607L9.83398 2.53869Z" fill="white"/>
</g>
<defs>
<clipPath id="clip0_217_1167">
<rect width="16" height="16" fill="white"/>
</clipPath>
</defs>
</svg>
