<svg xmlns="http://www.w3.org/2000/svg" width="212.438" height="238.092" viewBox="0 0 212.438 238.092">
  <g id="Group_32" data-name="Group 32" transform="translate(1809.38 -3527.006)">
    <g id="Group_31" data-name="Group 31" transform="translate(-1809.38 3537.006)">
      <path id="Union_146" data-name="Union 146" d="M105.161,13.345V0L211.106,65.636l-10.542,6.742,9.757,6.038ZM0,65.049,105.161,0V13.345L0,78.415Z" transform="translate(1.332 -10)" fill="#329fda"/>
      <path id="Union_147" data-name="Union 147" d="M0,65.049,105.387,0V13.345L0,78.415Zm178.177-6.76,10.659-6.7Zm-72.79-44.944V0l83.449,51.588-10.659,6.7Z" transform="translate(0 17.759)" fill="#b5c3c6"/>
      <path id="Union_148" data-name="Union 148" d="M0,65.049,103.28,0V13.345L0,78.415Zm103.28-51.7V0l60.156,37.947L152.9,44.609Z" transform="translate(1.332 46.037)" fill="#b6c4c7"/>
      <path id="Union_149" data-name="Union 149" d="M0,65.049,103.28,0V13.345L0,78.415ZM131.559,31.162l10.393-6.767ZM103.28,13.345V0l38.672,24.395-10.393,6.767Z" transform="translate(0.51 74.415)" fill="#33a0d9"/>
      <path id="Union_150" data-name="Union 150" d="M0,65.059,105.208,0V13.311L.078,78.339ZM105.208,13.311V0L210.9,65.472,200.386,72.2l9.734,6.023Z" transform="translate(212.235 228.092) rotate(180)" fill="#329fda"/>
      <path id="Union_151" data-name="Union 151" d="M0,65.284,105.1,0V13.437L.025,78.635Zm178.407-6.592,10.734-6.747ZM105.1,13.437V0l84.037,51.945-10.734,6.747Z" transform="translate(212.075 201.473) rotate(180)" fill="#b5c3c6"/>
      <path id="Union_152" data-name="Union 152" d="M0,65.3,103.545,0h0l60.078,37.865-10.266,6.47L103.545,13.869,0,77.63Z" transform="translate(209.966 176.565) rotate(180)" fill="#b6c4c7"/>
      <path id="Union_153" data-name="Union 153" d="M.041,65.034,103.549,0V13.248L0,78.422Zm131.592-34.1,10.321-6.718ZM103.549,13.248V0l38.406,24.218-10.321,6.718Z" transform="translate(212.075 150.01) rotate(180)" fill="#33a0d9"/>
    </g>
  </g>
</svg>
