<svg width="18" height="16" viewBox="0 0 18 16" fill="none" xmlns="http://www.w3.org/2000/svg">
<g opacity="0.8">
<path d="M6.33333 14.5937H11.6667M6.33333 14.5937V10.8176M6.33333 14.5937H1.53333C1.39188 14.5937 1.25623 14.5459 1.15621 14.4609C1.05619 14.376 1 14.2607 1 14.1405V11.2708C1 11.1506 1.05619 11.0353 1.15621 10.9504C1.25623 10.8654 1.39188 10.8176 1.53333 10.8176H6.33333M11.6667 14.5937V5.53122M11.6667 14.5937H16.4667C16.6081 14.5937 16.7438 14.5459 16.8438 14.4609C16.9438 14.376 17 14.2607 17 14.1405V1.45312C17 1.33295 16.9438 1.21769 16.8438 1.13272C16.7438 1.04774 16.6081 1 16.4667 1H12.2C12.0586 1 11.9229 1.04774 11.8229 1.13272C11.7229 1.21769 11.6667 1.33295 11.6667 1.45312V5.53122M6.33333 10.8176V5.98434C6.33333 5.86417 6.38952 5.74891 6.48954 5.66394C6.58956 5.57896 6.72522 5.53122 6.86667 5.53122H11.6667" stroke="white" stroke-width="1.5"/>
</g>
</svg>
