<svg width="16" height="16" viewBox="0 0 16 16" fill="none" xmlns="http://www.w3.org/2000/svg">
<g clip-path="url(#clip0_217_1158)">
<path d="M3.42941 7.99961V4.99389C3.43833 4.40307 3.56375 3.81982 3.79848 3.27755C4.03321 2.73529 4.37263 2.24466 4.79729 1.8338C5.22196 1.42294 5.72352 1.09991 6.27324 0.883218C6.82297 0.66653 7.41004 0.560442 8.00084 0.571034C8.59163 0.560442 9.17871 0.66653 9.72843 0.883218C10.2782 1.09991 10.7797 1.42294 11.2044 1.8338C11.629 2.24466 11.9685 2.73529 12.2032 3.27755C12.4379 3.81982 12.5633 4.40307 12.5723 4.99389V7.99961M10.2866 13.9996C10.8928 13.9996 11.4741 13.7588 11.9028 13.3301C12.3314 12.9015 12.5723 12.3201 12.5723 11.7139V9.14246M10.2866 13.9996C10.2866 14.3785 10.136 14.7418 9.86813 15.0098C9.60022 15.2777 9.23686 15.4282 8.85798 15.4282H7.14369C6.76481 15.4282 6.40145 15.2777 6.13354 15.0098C5.86563 14.7418 5.71512 14.3785 5.71512 13.9996C5.71512 13.6207 5.86563 13.2574 6.13354 12.9895C6.40145 12.7215 6.76481 12.571 7.14369 12.571H8.85798C9.23686 12.571 9.60022 12.7215 9.86813 12.9895C10.136 13.2574 10.2866 13.6207 10.2866 13.9996ZM1.71512 6.28532H2.85798C3.00953 6.28532 3.15488 6.34552 3.26204 6.45269C3.3692 6.55985 3.42941 6.7052 3.42941 6.85675V10.2853C3.42941 10.4369 3.3692 10.5822 3.26204 10.6894C3.15488 10.7965 3.00953 10.8567 2.85798 10.8567H1.71512C1.41202 10.8567 1.12133 10.7363 0.907001 10.522C0.692673 10.3077 0.572266 10.017 0.572266 9.71389V7.42818C0.572266 7.12507 0.692673 6.83438 0.907001 6.62006C1.12133 6.40573 1.41202 6.28532 1.71512 6.28532ZM14.2866 10.8567H13.1437C12.9921 10.8567 12.8468 10.7965 12.7396 10.6894C12.6325 10.5822 12.5723 10.4369 12.5723 10.2853V6.85675C12.5723 6.7052 12.6325 6.55985 12.7396 6.45269C12.8468 6.34552 12.9921 6.28532 13.1437 6.28532H14.2866C14.5897 6.28532 14.8803 6.40573 15.0947 6.62006C15.309 6.83438 15.4294 7.12507 15.4294 7.42818V9.71389C15.4294 10.017 15.309 10.3077 15.0947 10.522C14.8803 10.7363 14.5897 10.8567 14.2866 10.8567Z" stroke="white" stroke-linecap="round" stroke-linejoin="round"/>
</g>
<defs>
<clipPath id="clip0_217_1158">
<rect width="16" height="16" fill="white"/>
</clipPath>
</defs>
</svg>
